<mxfile host="app.diagrams.net" modified="2022-06-10T09:16:46.459Z" agent="5.0 (Windows NT 10.0; Win64; x64) AppleWebKit/537.36 (KHTML, like Gecko) Chrome/102.0.5005.63 Safari/537.36 Edg/102.0.1245.33" etag="IVJX7YPVYoSoJjug0hYo" version="19.0.3" type="github">
  <diagram id="X_8xVi9THBQjups-OE64" name="Page-1">
    <mxGraphModel dx="2447" dy="2006" grid="1" gridSize="10" guides="1" tooltips="1" connect="1" arrows="1" fold="1" page="1" pageScale="1" pageWidth="850" pageHeight="1100" math="0" shadow="0">
      <root>
        <mxCell id="0" />
        <mxCell id="1" parent="0" />
        <mxCell id="iE90AT0ftvGO2HV1_IIA-29" value="Thành phần quản lí dự án" style="shape=umlFrame;whiteSpace=wrap;html=1;width=380;height=40;" vertex="1" parent="1">
          <mxGeometry x="-360" y="590" width="380" height="250" as="geometry" />
        </mxCell>
        <mxCell id="iE90AT0ftvGO2HV1_IIA-1" value="Người dùng" style="shape=umlActor;verticalLabelPosition=bottom;verticalAlign=top;html=1;" vertex="1" parent="1">
          <mxGeometry x="130" y="300" width="30" height="60" as="geometry" />
        </mxCell>
        <mxCell id="iE90AT0ftvGO2HV1_IIA-4" value="Lấy lại mật khẩu" style="ellipse;whiteSpace=wrap;html=1;" vertex="1" parent="1">
          <mxGeometry x="-140" y="480" width="140" height="70" as="geometry" />
        </mxCell>
        <mxCell id="iE90AT0ftvGO2HV1_IIA-5" value="Đăng kí" style="ellipse;whiteSpace=wrap;html=1;" vertex="1" parent="1">
          <mxGeometry x="-330" y="480" width="140" height="70" as="geometry" />
        </mxCell>
        <mxCell id="iE90AT0ftvGO2HV1_IIA-7" value="Thêm , xóa , sửa" style="ellipse;whiteSpace=wrap;html=1;" vertex="1" parent="1">
          <mxGeometry x="-330" y="690" width="140" height="70" as="geometry" />
        </mxCell>
        <mxCell id="iE90AT0ftvGO2HV1_IIA-9" value="Đăng nhập" style="ellipse;whiteSpace=wrap;html=1;" vertex="1" parent="1">
          <mxGeometry x="-260" y="370" width="140" height="70" as="geometry" />
        </mxCell>
        <mxCell id="iE90AT0ftvGO2HV1_IIA-10" value="Người quản lí dự án" style="shape=umlActor;verticalLabelPosition=bottom;verticalAlign=top;html=1;" vertex="1" parent="1">
          <mxGeometry x="290" y="580" width="30" height="60" as="geometry" />
        </mxCell>
        <mxCell id="iE90AT0ftvGO2HV1_IIA-11" value="Thành viên dự án" style="shape=umlActor;verticalLabelPosition=bottom;verticalAlign=top;html=1;" vertex="1" parent="1">
          <mxGeometry x="520" y="290" width="30" height="60" as="geometry" />
        </mxCell>
        <mxCell id="iE90AT0ftvGO2HV1_IIA-17" value="Thành phần xác thực" style="shape=umlFrame;whiteSpace=wrap;html=1;width=380;height=30;" vertex="1" parent="1">
          <mxGeometry x="-360" y="320" width="380" height="250" as="geometry" />
        </mxCell>
        <mxCell id="iE90AT0ftvGO2HV1_IIA-23" value="" style="endArrow=none;html=1;rounded=0;exitX=1;exitY=0.5;exitDx=0;exitDy=0;entryX=0;entryY=0.3333333333333333;entryDx=0;entryDy=0;entryPerimeter=0;" edge="1" parent="1" source="iE90AT0ftvGO2HV1_IIA-9" target="iE90AT0ftvGO2HV1_IIA-1">
          <mxGeometry width="50" height="50" relative="1" as="geometry">
            <mxPoint x="50" y="410" as="sourcePoint" />
            <mxPoint x="100" y="360" as="targetPoint" />
          </mxGeometry>
        </mxCell>
        <mxCell id="iE90AT0ftvGO2HV1_IIA-24" value="" style="endArrow=none;html=1;rounded=0;exitX=1;exitY=0;exitDx=0;exitDy=0;" edge="1" parent="1" source="iE90AT0ftvGO2HV1_IIA-5">
          <mxGeometry width="50" height="50" relative="1" as="geometry">
            <mxPoint x="-160" y="465" as="sourcePoint" />
            <mxPoint x="130" y="320" as="targetPoint" />
          </mxGeometry>
        </mxCell>
        <mxCell id="iE90AT0ftvGO2HV1_IIA-25" value="" style="endArrow=none;html=1;rounded=0;" edge="1" parent="1">
          <mxGeometry width="50" height="50" relative="1" as="geometry">
            <mxPoint x="-70" y="480" as="sourcePoint" />
            <mxPoint x="130" y="320" as="targetPoint" />
          </mxGeometry>
        </mxCell>
        <mxCell id="iE90AT0ftvGO2HV1_IIA-27" value="" style="endArrow=none;html=1;rounded=0;exitX=1;exitY=0.3333333333333333;exitDx=0;exitDy=0;entryX=0;entryY=0.3333333333333333;entryDx=0;entryDy=0;entryPerimeter=0;exitPerimeter=0;startArrow=block;startFill=1;" edge="1" parent="1" source="iE90AT0ftvGO2HV1_IIA-1" target="iE90AT0ftvGO2HV1_IIA-10">
          <mxGeometry width="50" height="50" relative="1" as="geometry">
            <mxPoint x="-50" y="600" as="sourcePoint" />
            <mxPoint x="200" y="515" as="targetPoint" />
          </mxGeometry>
        </mxCell>
        <mxCell id="iE90AT0ftvGO2HV1_IIA-28" value="" style="endArrow=none;html=1;rounded=0;entryX=0;entryY=0.3333333333333333;entryDx=0;entryDy=0;entryPerimeter=0;startArrow=block;startFill=1;exitX=0.75;exitY=0.1;exitDx=0;exitDy=0;exitPerimeter=0;" edge="1" parent="1" source="iE90AT0ftvGO2HV1_IIA-1" target="iE90AT0ftvGO2HV1_IIA-11">
          <mxGeometry width="50" height="50" relative="1" as="geometry">
            <mxPoint x="160" y="320" as="sourcePoint" />
            <mxPoint x="140" y="150" as="targetPoint" />
            <Array as="points" />
          </mxGeometry>
        </mxCell>
        <mxCell id="iE90AT0ftvGO2HV1_IIA-33" value="" style="endArrow=none;html=1;rounded=0;entryX=0;entryY=0.3333333333333333;entryDx=0;entryDy=0;entryPerimeter=0;exitX=1;exitY=0;exitDx=0;exitDy=0;startArrow=none;jumpStyle=none;sketch=0;jumpSize=5;" edge="1" parent="1" source="iE90AT0ftvGO2HV1_IIA-7" target="iE90AT0ftvGO2HV1_IIA-10">
          <mxGeometry width="50" height="50" relative="1" as="geometry">
            <mxPoint x="-180" y="765" as="sourcePoint" />
            <mxPoint x="120" y="730" as="targetPoint" />
          </mxGeometry>
        </mxCell>
        <mxCell id="iE90AT0ftvGO2HV1_IIA-36" value="" style="endArrow=none;html=1;rounded=0;exitX=1;exitY=0.5;exitDx=0;exitDy=0;entryX=0;entryY=0.3333333333333333;entryDx=0;entryDy=0;entryPerimeter=0;" edge="1" parent="1" source="iE90AT0ftvGO2HV1_IIA-31" target="iE90AT0ftvGO2HV1_IIA-10">
          <mxGeometry width="50" height="50" relative="1" as="geometry">
            <mxPoint x="-177.1400000000001" y="762.5999999999999" as="sourcePoint" />
            <mxPoint x="130" y="320" as="targetPoint" />
          </mxGeometry>
        </mxCell>
        <mxCell id="iE90AT0ftvGO2HV1_IIA-38" value="Thành phần quản lí công việc" style="shape=umlFrame;whiteSpace=wrap;html=1;width=380;height=40;" vertex="1" parent="1">
          <mxGeometry x="540" y="510" width="570" height="430" as="geometry" />
        </mxCell>
        <mxCell id="iE90AT0ftvGO2HV1_IIA-40" value="Xem" style="ellipse;whiteSpace=wrap;html=1;" vertex="1" parent="1">
          <mxGeometry x="770" y="690" width="140" height="70" as="geometry" />
        </mxCell>
        <mxCell id="iE90AT0ftvGO2HV1_IIA-39" value="Thêm, xóa, sửa công việc" style="ellipse;whiteSpace=wrap;html=1;" vertex="1" parent="1">
          <mxGeometry x="570" y="850" width="140" height="70" as="geometry" />
        </mxCell>
        <mxCell id="iE90AT0ftvGO2HV1_IIA-48" value="Đánh dấu hoàn thành" style="ellipse;whiteSpace=wrap;html=1;" vertex="1" parent="1">
          <mxGeometry x="585" y="690" width="140" height="70" as="geometry" />
        </mxCell>
        <mxCell id="iE90AT0ftvGO2HV1_IIA-31" value="Xem" style="ellipse;whiteSpace=wrap;html=1;" vertex="1" parent="1">
          <mxGeometry x="-130" y="700" width="140" height="70" as="geometry" />
        </mxCell>
        <mxCell id="iE90AT0ftvGO2HV1_IIA-50" value="" style="endArrow=none;html=1;rounded=0;exitX=0.5;exitY=0;exitDx=0;exitDy=0;entryX=0;entryY=0.3333333333333333;entryDx=0;entryDy=0;entryPerimeter=0;" edge="1" parent="1" source="iE90AT0ftvGO2HV1_IIA-31" target="iE90AT0ftvGO2HV1_IIA-11">
          <mxGeometry width="50" height="50" relative="1" as="geometry">
            <mxPoint x="80" y="550" as="sourcePoint" />
            <mxPoint x="520" y="310" as="targetPoint" />
          </mxGeometry>
        </mxCell>
        <mxCell id="iE90AT0ftvGO2HV1_IIA-51" value="" style="endArrow=none;html=1;rounded=0;exitX=1;exitY=0.3333333333333333;exitDx=0;exitDy=0;entryX=0;entryY=0.5;entryDx=0;entryDy=0;exitPerimeter=0;" edge="1" parent="1" source="iE90AT0ftvGO2HV1_IIA-10" target="iE90AT0ftvGO2HV1_IIA-39">
          <mxGeometry width="50" height="50" relative="1" as="geometry">
            <mxPoint x="140" y="820" as="sourcePoint" />
            <mxPoint x="490" y="720" as="targetPoint" />
          </mxGeometry>
        </mxCell>
        <mxCell id="iE90AT0ftvGO2HV1_IIA-52" value="" style="endArrow=none;html=1;rounded=0;exitX=1;exitY=0.3333333333333333;exitDx=0;exitDy=0;entryX=0;entryY=0;entryDx=0;entryDy=0;exitPerimeter=0;" edge="1" parent="1" source="iE90AT0ftvGO2HV1_IIA-10" target="iE90AT0ftvGO2HV1_IIA-40">
          <mxGeometry width="50" height="50" relative="1" as="geometry">
            <mxPoint x="400" y="452.5" as="sourcePoint" />
            <mxPoint x="665.0000000000064" y="577.5" as="targetPoint" />
          </mxGeometry>
        </mxCell>
        <mxCell id="iE90AT0ftvGO2HV1_IIA-53" value="" style="endArrow=none;html=1;rounded=0;exitX=1;exitY=0.3333333333333333;exitDx=0;exitDy=0;entryX=0.5;entryY=0;entryDx=0;entryDy=0;exitPerimeter=0;" edge="1" parent="1" source="iE90AT0ftvGO2HV1_IIA-11" target="iE90AT0ftvGO2HV1_IIA-40">
          <mxGeometry width="50" height="50" relative="1" as="geometry">
            <mxPoint x="525" y="430" as="sourcePoint" />
            <mxPoint x="790.0000000000064" y="555" as="targetPoint" />
          </mxGeometry>
        </mxCell>
        <mxCell id="iE90AT0ftvGO2HV1_IIA-54" value="" style="endArrow=none;html=1;rounded=0;entryX=0;entryY=0.5;entryDx=0;entryDy=0;exitX=1;exitY=0.3333333333333333;exitDx=0;exitDy=0;exitPerimeter=0;" edge="1" parent="1" source="iE90AT0ftvGO2HV1_IIA-10" target="iE90AT0ftvGO2HV1_IIA-48">
          <mxGeometry width="50" height="50" relative="1" as="geometry">
            <mxPoint x="380" y="720" as="sourcePoint" />
            <mxPoint x="595.0000000000064" y="735" as="targetPoint" />
          </mxGeometry>
        </mxCell>
        <mxCell id="iE90AT0ftvGO2HV1_IIA-55" value="" style="endArrow=none;html=1;rounded=0;entryX=0.5;entryY=0;entryDx=0;entryDy=0;exitX=1;exitY=1;exitDx=0;exitDy=0;exitPerimeter=0;" edge="1" parent="1" source="iE90AT0ftvGO2HV1_IIA-11" target="iE90AT0ftvGO2HV1_IIA-48">
          <mxGeometry width="50" height="50" relative="1" as="geometry">
            <mxPoint x="330" y="610" as="sourcePoint" />
            <mxPoint x="680.0000000000064" y="835" as="targetPoint" />
          </mxGeometry>
        </mxCell>
        <mxCell id="iE90AT0ftvGO2HV1_IIA-56" value="Thành phần quản lí lời nhắc" style="shape=umlFrame;whiteSpace=wrap;html=1;width=380;height=40;" vertex="1" parent="1">
          <mxGeometry x="-250" y="-20" width="270" height="290" as="geometry" />
        </mxCell>
        <mxCell id="iE90AT0ftvGO2HV1_IIA-57" value="Thêm, xóa, sửa" style="ellipse;whiteSpace=wrap;html=1;" vertex="1" parent="1">
          <mxGeometry x="-190" y="50" width="140" height="70" as="geometry" />
        </mxCell>
        <mxCell id="iE90AT0ftvGO2HV1_IIA-58" value="Xem" style="ellipse;whiteSpace=wrap;html=1;" vertex="1" parent="1">
          <mxGeometry x="-190" y="150" width="140" height="70" as="geometry" />
        </mxCell>
        <mxCell id="iE90AT0ftvGO2HV1_IIA-59" value="" style="endArrow=none;html=1;rounded=0;exitX=1;exitY=0.5;exitDx=0;exitDy=0;entryX=0;entryY=0.3333333333333333;entryDx=0;entryDy=0;entryPerimeter=0;" edge="1" parent="1" source="iE90AT0ftvGO2HV1_IIA-58" target="iE90AT0ftvGO2HV1_IIA-1">
          <mxGeometry width="50" height="50" relative="1" as="geometry">
            <mxPoint x="-20" y="200" as="sourcePoint" />
            <mxPoint x="110" y="480" as="targetPoint" />
          </mxGeometry>
        </mxCell>
        <mxCell id="iE90AT0ftvGO2HV1_IIA-60" value="" style="endArrow=none;html=1;rounded=0;exitX=1;exitY=0.5;exitDx=0;exitDy=0;entryX=0.25;entryY=0.1;entryDx=0;entryDy=0;entryPerimeter=0;" edge="1" parent="1" source="iE90AT0ftvGO2HV1_IIA-57" target="iE90AT0ftvGO2HV1_IIA-1">
          <mxGeometry width="50" height="50" relative="1" as="geometry">
            <mxPoint x="-40" y="195" as="sourcePoint" />
            <mxPoint x="140" y="330" as="targetPoint" />
          </mxGeometry>
        </mxCell>
        <mxCell id="iE90AT0ftvGO2HV1_IIA-65" value="Thêm, xóa, sửa thành viên" style="ellipse;whiteSpace=wrap;html=1;" vertex="1" parent="1">
          <mxGeometry x="740" y="810" width="140" height="70" as="geometry" />
        </mxCell>
        <mxCell id="iE90AT0ftvGO2HV1_IIA-66" value="" style="endArrow=none;html=1;rounded=0;exitX=1;exitY=0.3333333333333333;exitDx=0;exitDy=0;entryX=0;entryY=0.5;entryDx=0;entryDy=0;exitPerimeter=0;" edge="1" parent="1" source="iE90AT0ftvGO2HV1_IIA-10" target="iE90AT0ftvGO2HV1_IIA-65">
          <mxGeometry width="50" height="50" relative="1" as="geometry">
            <mxPoint x="330" y="610" as="sourcePoint" />
            <mxPoint x="580" y="895" as="targetPoint" />
          </mxGeometry>
        </mxCell>
        <mxCell id="iE90AT0ftvGO2HV1_IIA-70" style="rounded=0;sketch=0;jumpStyle=none;jumpSize=5;orthogonalLoop=1;jettySize=auto;elbow=vertical;html=1;exitX=0.5;exitY=0;exitDx=0;exitDy=0;entryX=1;entryY=0.3333333333333333;entryDx=0;entryDy=0;entryPerimeter=0;endArrow=none;endFill=0;" edge="1" parent="1" source="iE90AT0ftvGO2HV1_IIA-68" target="iE90AT0ftvGO2HV1_IIA-11">
          <mxGeometry relative="1" as="geometry">
            <Array as="points">
              <mxPoint x="1250" y="310" />
            </Array>
          </mxGeometry>
        </mxCell>
        <mxCell id="iE90AT0ftvGO2HV1_IIA-68" value="Thông báo thay đổi thành viên" style="ellipse;whiteSpace=wrap;html=1;" vertex="1" parent="1">
          <mxGeometry x="1180" y="810" width="140" height="70" as="geometry" />
        </mxCell>
        <mxCell id="iE90AT0ftvGO2HV1_IIA-69" value="Include" style="endArrow=block;endSize=16;endFill=0;html=1;rounded=0;sketch=0;elbow=vertical;jumpStyle=none;jumpSize=5;exitX=1;exitY=0.5;exitDx=0;exitDy=0;entryX=0;entryY=0.5;entryDx=0;entryDy=0;" edge="1" parent="1" source="iE90AT0ftvGO2HV1_IIA-65" target="iE90AT0ftvGO2HV1_IIA-68">
          <mxGeometry width="160" relative="1" as="geometry">
            <mxPoint x="970" y="900" as="sourcePoint" />
            <mxPoint x="1130" y="900" as="targetPoint" />
          </mxGeometry>
        </mxCell>
        <mxCell id="iE90AT0ftvGO2HV1_IIA-71" value="Bình luận" style="ellipse;whiteSpace=wrap;html=1;" vertex="1" parent="1">
          <mxGeometry x="840" y="570" width="140" height="70" as="geometry" />
        </mxCell>
        <mxCell id="iE90AT0ftvGO2HV1_IIA-72" value="" style="endArrow=none;html=1;rounded=0;exitX=1;exitY=0.3333333333333333;exitDx=0;exitDy=0;entryX=0;entryY=0;entryDx=0;entryDy=0;exitPerimeter=0;" edge="1" parent="1" source="iE90AT0ftvGO2HV1_IIA-11" target="iE90AT0ftvGO2HV1_IIA-71">
          <mxGeometry width="50" height="50" relative="1" as="geometry">
            <mxPoint x="590" y="270" as="sourcePoint" />
            <mxPoint x="880" y="650" as="targetPoint" />
          </mxGeometry>
        </mxCell>
        <mxCell id="iE90AT0ftvGO2HV1_IIA-73" value="" style="endArrow=none;html=1;rounded=0;exitX=1;exitY=0.3333333333333333;exitDx=0;exitDy=0;entryX=0;entryY=0.5;entryDx=0;entryDy=0;exitPerimeter=0;" edge="1" parent="1" source="iE90AT0ftvGO2HV1_IIA-10" target="iE90AT0ftvGO2HV1_IIA-71">
          <mxGeometry width="50" height="50" relative="1" as="geometry">
            <mxPoint x="570" y="330" as="sourcePoint" />
            <mxPoint x="860" y="710" as="targetPoint" />
          </mxGeometry>
        </mxCell>
        <mxCell id="iE90AT0ftvGO2HV1_IIA-75" style="edgeStyle=none;rounded=0;sketch=0;jumpStyle=none;jumpSize=5;orthogonalLoop=1;jettySize=auto;html=1;entryX=1;entryY=0.5;entryDx=0;entryDy=0;startArrow=none;startFill=0;endArrow=block;endFill=0;elbow=vertical;" edge="1" parent="1" source="iE90AT0ftvGO2HV1_IIA-74" target="iE90AT0ftvGO2HV1_IIA-71">
          <mxGeometry relative="1" as="geometry" />
        </mxCell>
        <mxCell id="iE90AT0ftvGO2HV1_IIA-74" value="Thêm bình luận văn bản" style="ellipse;whiteSpace=wrap;html=1;" vertex="1" parent="1">
          <mxGeometry x="960" y="650" width="140" height="70" as="geometry" />
        </mxCell>
        <mxCell id="iE90AT0ftvGO2HV1_IIA-76" value="Thành phần quản lí&amp;nbsp; người dùng" style="shape=umlFrame;whiteSpace=wrap;html=1;width=380;height=40;" vertex="1" parent="1">
          <mxGeometry x="335" y="-10" width="375" height="190" as="geometry" />
        </mxCell>
        <mxCell id="iE90AT0ftvGO2HV1_IIA-77" value="Thay đổi avatar" style="ellipse;whiteSpace=wrap;html=1;" vertex="1" parent="1">
          <mxGeometry x="350" y="40" width="140" height="70" as="geometry" />
        </mxCell>
        <mxCell id="iE90AT0ftvGO2HV1_IIA-78" value="Thay đổi ngôn ngữ" style="ellipse;whiteSpace=wrap;html=1;" vertex="1" parent="1">
          <mxGeometry x="520" y="80" width="140" height="70" as="geometry" />
        </mxCell>
        <mxCell id="iE90AT0ftvGO2HV1_IIA-80" value="" style="endArrow=none;html=1;rounded=0;entryX=0.5;entryY=0;entryDx=0;entryDy=0;entryPerimeter=0;" edge="1" parent="1" source="iE90AT0ftvGO2HV1_IIA-77" target="iE90AT0ftvGO2HV1_IIA-1">
          <mxGeometry width="50" height="50" relative="1" as="geometry">
            <mxPoint x="170.00000000000205" y="70" as="sourcePoint" />
            <mxPoint x="357.5" y="291" as="targetPoint" />
          </mxGeometry>
        </mxCell>
        <mxCell id="iE90AT0ftvGO2HV1_IIA-81" value="" style="endArrow=none;html=1;rounded=0;exitX=0;exitY=1;exitDx=0;exitDy=0;entryX=0.75;entryY=0.1;entryDx=0;entryDy=0;entryPerimeter=0;" edge="1" parent="1" source="iE90AT0ftvGO2HV1_IIA-78" target="iE90AT0ftvGO2HV1_IIA-1">
          <mxGeometry width="50" height="50" relative="1" as="geometry">
            <mxPoint x="211.25000000000205" y="70" as="sourcePoint" />
            <mxPoint x="398.75" y="291" as="targetPoint" />
          </mxGeometry>
        </mxCell>
      </root>
    </mxGraphModel>
  </diagram>
</mxfile>
